inDegrees=yes
name=ik_lifting_orientations
DataType=double
version=3
OpenSimVersion=4.5-2024-01-10-34fd6af
endheader
time	pelvis_tilt	pelvis_list	pelvis_rotation	pelvis_tx	pelvis_ty	pelvis_tz	hip_flexion_r	hip_adduction_r	hip_rotation_r	knee_angle_r	knee_angle_r_beta	ankle_angle_r	subtalar_angle_r	mtp_angle_r	hip_flexion_l	hip_adduction_l	hip_rotation_l	knee_angle_l	knee_angle_l_beta	ankle_angle_l	subtalar_angle_l	mtp_angle_l	lumbar_extension	lumbar_bending	lumbar_rotation	arm_flex_r	arm_add_r	arm_rot_r	elbow_flex_r	pro_sup_r	wrist_flex_r	wrist_dev_r	arm_flex_l	arm_add_l	arm_rot_l	elbow_flex_l	pro_sup_l	wrist_flex_l	wrist_dev_l
0.62	-17.7652037081968	-20.59375040748874	24.86304375343715	0	0.9399999998679526	0	43.76528496484793	-10.10329958234864	0	60.863880893672	1.062275117136245	-4.989245582563959	0	0	43.76528496484793	-10.10329958234864	0	60.863880893672	1.062275117136245	-4.989245582563959	0	0	-10.28011253936521	-29.97832555855179	14.72151058473477	45.97804930204899	20.33285013453872	-57.64608024348964	30.0878446442308	-0.1216441352071444	0	0	0	-11.9210773703763	0	90.54568648403117	-0.1216441352071444	0	0
0.63	-18.00424625770319	-21.19153191747916	25.6230461735599	0	0.9399999998679526	0	43.76564582656111	-10.10319437906777	0	60.86368235814329	1.062271652037587	-4.98925986311315	0	0	43.76564582656111	-10.10319437906777	0	60.86368235814329	1.062271652037587	-4.98925986311315	0	0	-10.48576430489508	-29.99967113129475	14.6786435881785	46.69201767262602	20.04576278754545	-58.75378277492999	30.11341012840543	-0.121619409401046	0	0	0	-11.9215389837373	0	90.54557545035786	-0.121619409401046	0	0
0.64	-18.11763211490124	-20.79818149980949	26.19802812215853	0	0.9399999998679526	0	43.7662566614279	-10.10301558343133	0	60.86334765007423	1.062265810279749	-4.989284145694961	0	0	43.7662566614279	-10.10301558343133	0	60.86334765007423	1.062265810279749	-4.989284145694961	0	0	-12.05135325581216	-30.18672713086799	14.51464249627144	47.62021449179351	19.94250191546876	-58.71332804874335	31.80853201921886	-0.1215776170527276	0	0	0	-11.92231822101368	0	90.54538777763679	-0.1215776170527276	0	0
0.65	-18.34919130074773	-21.38394615207064	27.01146652377585	0	0.9399999998679526	0	43.76687184559506	-10.10283639286375	0	60.86300953213626	1.062259909008471	-4.989308451920027	0	0	43.76687184559506	-10.10283639286375	0	60.86300953213626	1.062259909008471	-4.989308451920027	0	0	-12.03888249452608	-29.57152933148595	13.6231719101264	48.29449783952688	20.02708789474591	-58.92008668660356	31.44949730342889	-0.1215354730077811	0	0	0	-11.92310484163519	0	90.54519852563752	-0.1215354730077811	0	0
0.66	-18.59787621423586	-21.96015899710888	27.81231620014208	0	0.9399999998679526	0	43.76795209697693	-10.10252379119147	0	60.86241493211002	1.062249531280281	-4.989350752080954	0	0	43.76795209697693	-10.10252379119147	0	60.86241493211002	1.062249531280281	-4.989350752080954	0	0	-12.00891497523662	-29.01833448480899	14.16461697847691	48.29472998706281	18.62260725348136	-59.85748848865622	32.6019669208713	-0.1214614030019664	0	0	0	-11.92448807840089	0	90.54486590700968	-0.1214614030019664	0	0
0.67	-18.71576512436831	-21.58550453256387	28.36807961355448	0	0.9399999998679526	0	43.768635457309	-10.10232595620007	0	60.86203861584425	1.062242963322414	-4.989377530191602	0	0	43.768635457309	-10.10232595620007	0	60.86203861584425	1.062242963322414	-4.989377530191602	0	0	-12.44686618599471	-29.2683142786661	13.41170399982375	49.18117503839172	17.55328985332189	-59.51322520363558	30.65945050162851	-0.1214145372431571	0	0	0	-11.92536351755651	0	90.54465545173713	-0.1214145372431571	0	0
0.68	-19.54337513368866	-22.90647423940059	28.53642177961927	0	0.9399999998679526	0	43.76919973119711	-10.10216251448873	0	60.86172819639241	1.062237545480918	-4.989399650510564	0	0	43.76919973119711	-10.10216251448873	0	60.86172819639241	1.062237545480918	-4.989399650510564	0	0	-11.60886208756529	-29.00092331898037	13.84731358467554	50.36815299188003	16.09382215195502	-60.42025641827713	30.4099984856011	-0.1213758503177318	0	0	0	-11.92608597988785	0	90.54448172430649	-0.1213758503177318	0	0
0.6899999999999999	-19.1643401391311	-22.77130768831016	29.97077209631385	0	0.9399999998679526	0	43.76997474367669	-10.10193809326933	0	60.86130210390413	1.062230108764079	-4.989430013925092	0	0	43.76997474367669	-10.10193809326933	0	60.86130210390413	1.062230108764079	-4.989430013925092	0	0	-12.65031258070052	-28.67832554673042	12.42662879302666	50.72562937319699	14.94682960350929	-60.46586029686654	29.55488477254788	-0.1213227216084197	0	0	0	-11.92707800255448	0	90.54424314462591	-0.1213227216084197	0	0
0.7	-19.46810944226371	-22.98317141065777	31.34337141101904	0	0.9399999998679526	0	43.77032479037592	-10.10183711152006	0	60.86110921050278	1.06222674213912	-4.98944366320357	0	0	43.77032479037592	-10.10183711152006	0	60.86110921050278	1.06222674213912	-4.98944366320357	0	0	-12.41737407721885	-28.71084065655618	12.3733230807601	51.08674012819272	14.21444415484339	-61.70026222287068	30.07726923261933	-0.1212987016366745	0	0	0	-11.92752686378172	0	90.54413528060867	-0.1212987016366745	0	0
0.71	-19.70503660461426	-23.60753325858711	32.09792003356158	0	0.9399999998679526	0	43.78147678183741	-10.09970788336039	0	60.85326425116696	1.062089821769025	-4.989704212326017	0	0	43.78147678183741	-10.09970788336039	0	60.85326425116696	1.062089821769025	-4.989704212326017	0	0	-13.32027755644773	-27.95159974863445	12.30841008366157	52.25973577683599	11.70313733385629	-62.08754918261388	30.09898031552678	-0.1204511434583425	0	0	0	-11.94467430483981	0	90.54032931336516	-0.1204511434583425	0	0
0.72	-19.6808775669275	-23.58702811056584	32.14091120899106	0	0.9399999998679526	0	43.78180869925038	-10.09961279512897	0	60.85308219027823	1.062086644207078	-4.989717025836718	0	0	43.78180869925038	-10.09961279512897	0	60.85308219027823	1.062086644207078	-4.989717025836718	0	0	-13.39352682522746	-27.95366402218692	12.24110613790824	51.5893038167516	11.0950301179711	-62.06346864396082	30.73758826949555	-0.1204283585916697	0	0	0	-11.94510006276493	0	90.54022699573483	-0.1204283585916697	0	0
0.73	-19.69218994426407	-23.59539634876645	32.13818896442245	0	0.9399999998679526	0	43.78251977559309	-10.09940888211346	0	60.85269278645697	1.062079847828277	-4.989744501873547	0	0	43.78251977559309	-10.09940888211346	0	60.85269278645697	1.062079847828277	-4.989744501873547	0	0	-12.63903050515258	-28.72143730658653	12.29540558562721	51.65179383203401	10.77622394110821	-62.38478930392988	30.48290301921894	-0.1203795715049432	0	0	0	-11.94601126108963	0	90.54000791261831	-0.1203795715049432	0	0
0.74	-19.69411910026975	-23.59858760488728	32.13425570320675	0	0.9399999998679526	0	43.78299761596286	-10.09927219585638	0	60.85243079903849	1.062075275285226	-4.989762905598956	0	0	43.78299761596286	-10.09927219585638	0	60.85243079903849	1.062075275285226	-4.989762905598956	0	0	-12.63175174273296	-28.72087819510617	12.29963836765102	52.18432160582532	9.2194756045619	-62.39547802165266	29.60926378685772	-0.1203467683996443	0	0	0	-11.9466241959789	0	90.53986060712892	-0.1203467683996443	0	0
0.75	-18.91370196131543	-22.22051691781527	31.97819019255525	0	0.9399999998679526	0	43.78360193920434	-10.09910108955713	0	60.85209696882514	1.06206944884886	-4.989785892896441	0	0	43.78360193920434	-10.09910108955713	0	60.85209696882514	1.06206944884886	-4.989785892896441	0	0	-13.83296398301743	-29.59389522814465	12.61159481529683	52.19760827617683	9.201304067276149	-62.39798156689899	29.60335142425636	-0.1203051579743608	0	0	0	-11.94740364927786	0	90.53967375163761	-0.1203051579743608	0	0
0.76	-18.86877643065207	-22.22269690263065	31.98126438127658	0	0.9399999998679526	0	43.78388552023643	-10.09902027998109	0	60.85194123033222	1.062066730699386	-4.989796760294551	0	0	43.78388552023643	-10.09902027998109	0	60.85194123033222	1.062066730699386	-4.989796760294551	0	0	-13.87450785975541	-29.5626215771777	12.62488080044645	51.85982489097971	8.858996218339307	-62.35372085635576	30.76199976323509	-0.1202856746187486	0	0	0	-11.94776793105354	0	90.53958625977636	-0.1202856746187486	0	0
0.77	-18.68109916053044	-21.64735182548932	31.15696808426835	0	0.9399999998679526	0	43.78773641096663	-10.09822309326429	0	60.8493278795128	1.062021119123078	-4.989896732786697	0	0	43.78773641096663	-10.09822309326429	0	60.8493278795128	1.062021119123078	-4.989896732786697	0	0	-14.84363634923361	-30.37523488753921	12.68579765722891	52.54932360211907	7.556448841871356	-62.05558873701483	30.28770932305734	-0.1199975103298207	0	0	0	-11.95353399602927	0	90.53829225196367	-0.1199975103298207	0	0
